<!-- Key image: Do Not Disturb ON. Bell based on Lucide (ISC) plus a "z", echoing the Windows 11 icon. -->
<svg xmlns="http://www.w3.org/2000/svg" viewBox="0 0 144 144">
  <defs>
    <linearGradient id="bg" x1="0" y1="0" x2="1" y2="1">
      <stop offset="0" stop-color="#7b61ff"/>
      <stop offset="1" stop-color="#4b3bc4"/>
    </linearGradient>
  </defs>
  <rect width="144" height="144" fill="url(#bg)"/>
  <g transform="translate(28 42) scale(2.9)" fill="#ffffff" stroke="#ffffff" stroke-width="2" stroke-linecap="round" stroke-linejoin="round">
    <path d="M10.268 21a2 2 0 0 0 3.464 0" fill="none"/>
    <path d="M3.262 15.326A1 1 0 0 0 4 17h16a1 1 0 0 0 .74-1.673C19.41 13.956 18 12.499 18 8A6 6 0 0 0 6 8c0 4.499-1.411 5.956-2.738 7.326"/>
  </g>
  <path d="M93 33h19l-19 20h19" fill="none" stroke="#ffffff" stroke-width="6" stroke-linecap="round" stroke-linejoin="round"/>
</svg>
