<!-- Plugin icon (store / plugin list), transparent background. Bolt based on Lucide "zap" (ISC). -->
<svg xmlns="http://www.w3.org/2000/svg" viewBox="0 0 144 144">
  <rect x="16" y="16" width="112" height="112" rx="24" fill="none" stroke="#ffffff" stroke-width="8"/>
  <g transform="translate(32 32) scale(3.3333)" fill="#ffffff" stroke="#ffffff" stroke-width="2" stroke-linecap="round" stroke-linejoin="round">
    <path d="M4 14a1 1 0 0 1-.78-1.63l9.9-10.2a.5.5 0 0 1 .86.46l-1.92 6.02A1 1 0 0 0 13 10h7a1 1 0 0 1 .78 1.63l-9.9 10.2a.5.5 0 0 1-.86-.46l1.92-6.02A1 1 0 0 0 11 14z"/>
  </g>
</svg>
